<svg xmlns="http://www.w3.org/2000/svg" viewBox="0 0 64 64" role="img" aria-label="DeliBlock">
  <defs>
    <linearGradient id="dbShield" x1="12%" y1="8%" x2="88%" y2="92%">
      <stop offset="0%" stop-color="#21e0a1"/>
      <stop offset="100%" stop-color="#2db0ff"/>
    </linearGradient>
    <linearGradient id="dbInner" x1="20%" y1="18%" x2="80%" y2="82%">
      <stop offset="0%" stop-color="#0b1626"/>
      <stop offset="100%" stop-color="#101f35"/>
    </linearGradient>
  </defs>

  <path d="M32 4 8 13v16c0 16.4 10.2 29 24 33 13.8-4 24-16.6 24-33V13L32 4Z" fill="url(#dbShield)"/>
  <path d="M32 8.8 12.8 16v12.9c0 13.8 8.1 24.4 19.2 28 11.1-3.6 19.2-14.2 19.2-28V16L32 8.8Z" fill="url(#dbInner)"/>

  <path d="M28.8 24h5.9c4.6 0 7.4 2.8 7.4 7.2 0 4.7-3 7.8-7.6 7.8h-5.7V24Z"
        fill="none"
        stroke="#e8f5ff"
        stroke-width="1.9"
        stroke-linejoin="round"/>
</svg>
